<svg xmlns:xlink="http://www.w3.org/1999/xlink" width="132" height="148" viewBox="0 0 132 148" fill="none" xmlns="http://www.w3.org/2000/svg">
<ellipse opacity="0.75" cx="61.2852" cy="80.3578" rx="44.3241" ry="44.3241" fill="url(#paint0_radial_659_207)"/>
<path d="M87.1363 20.1999L86.6755 21.3621L83.2328 29.9606L82.4612 31.8795L82.1374 32.6837L81.6005 34.0291L80.7366 36.1906L80.4344 36.9625L80.1106 37.7667L79.6668 37.6188L72.6833 35.1949L70.391 34.3967L69.0154 33.928L68.9831 33.9063L68.3055 33.6812C68.3055 33.6812 68.3088 33.6693 68.3067 33.6304C68.3247 33.3801 68.3993 32.2774 68.4956 30.7722C68.5194 30.4086 68.553 30.0093 68.578 29.595C68.6046 29.3598 68.6075 29.1181 68.6406 28.8592C68.7483 27.4975 68.8835 25.9903 69.0239 24.51C69.2835 21.8116 69.5954 19.2937 69.9184 18.0297L70.0133 17.6857C70.1004 17.4161 70.1883 17.2361 70.2811 17.2234C71.2718 16.9606 80.7043 14.4817 84.5894 16.9956C85.8109 17.792 86.495 18.3636 86.8754 18.7877C87.1213 19.4682 87.1511 19.9615 87.1408 20.1373C87.1396 20.1881 87.1363 20.1999 87.1363 20.1999Z" fill="#00FF1A"/>
<path d="M87.1408 20.1373C86.5408 20.2782 85.8256 20.3745 85.0135 20.4059C84.8108 20.401 84.6015 20.4199 84.4021 20.4032C84.1809 20.4188 83.9901 20.4172 83.7755 20.4091C83.0595 20.4158 82.3565 20.3751 81.6568 20.3226C79.1082 20.1302 76.6822 19.6781 74.4712 19.0939C73.9023 18.937 73.3571 18.7866 72.8271 18.6277C71.8262 18.3261 70.8912 18.0172 70.0133 17.6857C70.1004 17.4161 70.1883 17.2361 70.2811 17.2234C71.2718 16.9606 80.7043 14.4817 84.5894 16.9956C85.8109 17.792 86.495 18.3636 86.8754 18.7877C87.5631 19.5773 87.1417 19.8568 87.1408 20.1373Z" fill="#01830D"/>
<path d="M84.31 20.8757C84.0941 21.6586 83.6113 22.253 83.0963 22.4556C82.8826 22.5371 82.6582 22.5646 82.4448 22.5057C81.7219 22.3063 81.3747 21.2532 81.6789 20.15C81.8 19.7111 82.0093 19.3221 82.2668 19.0357C82.6413 18.6028 83.1207 18.3904 83.5474 18.5081C84.2789 18.7226 84.6143 19.7725 84.31 20.8757Z" fill="#01830D"/>
<path opacity="0.4" d="M83.6811 21.3531C83.5601 21.792 83.3507 22.1811 83.0932 22.4675C82.8794 22.5489 82.655 22.5764 82.4417 22.5176C81.7188 22.3182 81.3715 21.265 81.6758 20.1618C81.7969 19.7229 82.0062 19.3339 82.2637 19.0475C82.4775 18.9661 82.7019 18.9386 82.9152 18.9974C83.6414 19.185 83.9854 20.2499 83.6811 21.3531Z" fill="#01830D"/>
<path d="M74.4712 19.0939C74.3207 19.6395 73.8323 19.9771 73.3819 19.8529C72.9316 19.7287 72.6852 19.1885 72.8357 18.6428C72.9862 18.0971 73.4746 17.7595 73.925 17.8837C74.3754 18.008 74.6217 18.5482 74.4712 19.0939Z" fill="#01830D"/>
<path d="M83.1021 93.4159C81.6435 99.9066 75.9917 101.718 70.1836 101.737C64.4348 101.773 58.535 100.043 56.4042 99.3535C56.2705 99.3294 56.1283 99.2902 55.9624 99.2444C52.1694 98.3387 41.1582 95.2125 37.3102 88.7262C36.8166 87.9263 36.4559 87.0609 36.2365 86.1452C35.7901 84.3882 35.8587 82.4286 36.6279 80.2409C37.8668 76.766 39.8798 73.7215 42.2409 71.0794C42.6154 70.6466 43.0102 70.2321 43.4051 69.8177C43.7934 69.427 44.1818 69.0362 44.5906 68.6639C45.0426 68.227 45.5033 67.8051 45.9844 67.4017C51.1496 62.9162 56.8147 59.9472 59.588 58.2612C59.7695 58.1581 59.9392 58.0517 60.0851 57.9388C60.3974 57.7313 60.661 57.5615 60.8588 57.3991C61.0448 57.2333 61.1822 57.1053 61.2537 56.9846C61.4087 56.7465 61.5927 56.1718 61.8184 55.3533C62.8118 51.7978 64.4243 43.6392 65.4653 38.246C65.6997 37.0724 65.9034 36.0564 66.0581 35.2183C66.1207 34.8526 66.1734 34.5225 66.2217 34.255C66.3346 33.6077 66.9805 33.2133 67.6139 33.388L79.6302 36.7021C80.7622 37.0143 81.3855 38.2307 80.9914 39.3369C80.6761 40.1562 80.302 41.1891 79.8767 42.3611C77.571 48.7329 73.9236 58.9982 73.9352 60.4822C73.9322 61.094 74.9149 62.7564 76.2284 65.161C79.5751 71.2373 85.1917 82.0763 83.2464 92.7406C83.2052 92.9665 83.1631 93.1945 83.1021 93.4159Z" fill="white"/>
<path opacity="0.9" d="M57.7752 95.3536C54.2805 94.5684 38.5936 90.4079 42.362 79.7037C44.0602 74.8875 47.6951 70.7713 51.5162 67.4597C57.2295 62.5126 63.3254 59.3688 63.8761 58.4357C64.7792 56.8722 69.4811 31.5928 69.4811 31.5928L80.5846 35.2168C80.5846 35.2168 71.6054 58.8953 71.5879 60.7158C71.5706 61.796 75.1568 67.5208 77.4835 74.6215C79.0615 79.3967 80.0726 84.7942 79.0434 89.8204C76.7802 100.94 61.1783 96.4708 57.7752 95.3536Z" fill="#101010"/>
<path d="M57.7752 95.3535C54.2806 94.5684 38.5936 90.4079 42.362 79.7037C44.0602 74.8874 47.6951 70.7713 51.5162 67.4596C51.5162 67.4596 50.662 72.299 59.0872 69.0021C67.5125 65.7053 75.2051 68.2695 75.2051 68.2695C79.6008 78.16 80.0607 84.7909 79.0316 89.8171C76.7802 100.94 61.1783 96.4708 57.7752 95.3535Z" fill="#00FF1A"/>
<path opacity="0.6" d="M81.7448 37.2983C81.7448 37.2983 81.4512 38.0854 80.9998 39.3522C80.6846 40.1716 80.3104 41.2045 79.8852 42.3764C79.3241 42.1451 78.7478 41.9223 78.1597 41.6963C76.5075 41.0747 74.7742 40.469 73.0655 39.9594C71.4161 39.4662 69.7286 39.0647 68.1348 38.7399C67.2209 38.539 66.3328 38.3834 65.477 38.2495C65.7114 37.0759 65.9151 36.0599 66.0698 35.2218C66.1324 34.8561 66.1851 34.526 66.2334 34.2585C66.3652 33.5034 66.4592 33.0698 66.4592 33.0698L81.7481 37.2865L81.7448 37.2983Z" fill="white"/>
<path d="M85.3246 32.5032L82.3509 39.7248L64.6917 34.8544L66.0546 28.248L68.6625 28.8268L69.4426 29.0037L76.7414 30.6082L82.4528 31.8643L85.3246 32.5032Z" fill="white"/>
<rect opacity="0.9" x="65.3146" y="76.3284" width="5.86104" height="5.86104" rx="2.93052" transform="rotate(90 65.3146 76.3284)" fill="white"/>
<rect opacity="0.9" x="75.5715" y="81.4568" width="8.79156" height="8.79156" rx="4.39578" transform="rotate(90 75.5715 81.4568)" fill="white"/>
<rect opacity="0.9" x="71.1757" y="72.6653" width="3.66315" height="3.66315" rx="1.83157" transform="rotate(90 71.1757 72.6653)" fill="white"/>
<defs>
<radialGradient id="paint0_radial_659_207" cx="0" cy="0" r="1" gradientUnits="userSpaceOnUse" gradientTransform="translate(61.2852 80.3578) rotate(90) scale(44.3241)">
<stop stop-color="#01830D"/>
<stop offset="0.90625" stop-color="#01830D" stop-opacity="0"/>
</radialGradient>
</defs>
</svg>
