<svg xmlns:xlink="http://www.w3.org/1999/xlink" width="299" height="325" viewBox="0 0 299 325" fill="none" xmlns="http://www.w3.org/2000/svg">
<g filter="url(#filter0_d_133_89)">
<path d="M281.275 55.2537C280.128 59.0156 278.981 62.7775 277.855 66.5899C278.612 58.5246 280.648 50.8121 277.532 42.5959C274.224 33.9248 267.661 26.9867 260.713 21.1057C259.967 20.4676 258.546 21.1875 259.146 22.1851C262.304 27.4042 265.18 32.802 267.725 38.3996C263.569 35.7472 259.079 33.7125 254.256 32.2957C253.17 31.9799 252.646 33.2739 253.413 33.9626C257.464 37.4935 261.385 41.1389 265.046 45.0135C266.543 46.5851 270.028 49.7599 269.226 51.9458C269.288 52.5153 268.991 52.9388 268.241 53.1364C267.56 54.199 266.847 54.2023 266.061 53.0453C264.02 52.2992 261.662 49.9592 259.926 48.6673C251.195 42.2289 242.898 35.1301 236.842 26.0117C236.234 25.1366 234.663 25.5026 234.982 26.6788C236.956 34.3051 240.314 41.4058 245.181 47.5709C249.726 53.3956 255.762 57.3985 260.885 62.6211C272.938 74.8055 269.959 91.9729 264.013 106.343C259.188 94.0828 252.415 82.7054 243.946 72.5219C243.445 71.8995 242.45 72.0814 242.274 72.9306C240.939 80.049 245.058 85.9939 248.422 91.841C251.479 97.1028 253.678 102.727 255.848 108.424C257.975 114.019 258.467 118.28 254.78 123.354C252.144 126.971 249.148 130.441 246.346 133.949C244.826 135.843 243.306 137.737 241.786 139.631C241.17 140.427 239.452 143.12 238.188 142.522C237.9 142.405 237.834 139.573 237.785 139.177C236.568 129.681 234.804 120.298 232.542 111.006C232.323 110.205 230.913 109.967 230.872 110.997C230.59 119.338 230.667 127.826 229.773 136.128C228.931 143.992 226.662 152.279 219.989 157.185C218.985 157.908 217.562 159.045 216.323 159.212C213.045 159.763 210.646 155.355 209.065 153.163C206.876 150.096 204.738 147.008 202.419 144.056C197.853 138.181 192.73 132.958 186.261 129.198C185.478 128.754 184.603 129.78 185.096 130.524C190.408 138.587 195.359 146.921 199.805 155.469C202.017 159.717 208.283 168.628 205.196 173.15C204.008 174.844 201.08 176.082 199.348 177.052C198.229 177.644 197.082 178.308 195.899 178.748C193.973 179.681 191.841 179.987 189.524 179.715C187.078 181.106 185.054 181.246 183.576 180.143C180.449 172.885 178.908 165.016 176.934 157.39C174.84 149.338 172.724 141.235 170.608 133.133C170.29 131.957 168.74 132.373 168.865 133.512C169.602 142.436 170.339 151.36 171.055 160.233C171.346 164.161 171.689 168.068 171.98 171.996C172.259 175.751 173.609 181.198 168.64 183.239C166.772 184.029 164.03 183.877 162.03 183.65C155.253 182.82 149.297 178.724 144.053 174.625C137.103 169.162 130.471 163.326 124.836 156.472C123.991 155.458 122.611 156.697 123.283 157.724C129.741 167.09 135.007 177.436 140.721 187.294C137.653 187.638 133.835 188.179 133.216 188.262C130.054 188.526 126.872 188.739 123.689 188.952C116.021 189.393 108.626 189.778 102.561 184.298C93.1771 175.752 88.4118 161.381 88.1151 148.995C88.1442 148.923 88.1014 148.822 88.0801 148.771C88.1092 148.699 88.1092 148.699 88.1383 148.627C88.379 147.93 87.2294 147.462 86.9168 148.131C80.4231 161.064 86.7651 175.364 92.9164 187.243C86.3976 186.602 81.2278 182.114 76.8872 177.335C71.9308 171.803 67.7842 165.512 64.4958 158.859C61.0364 151.801 58.6159 144.244 57.2614 136.535C55.9633 129.099 56.4924 121.905 56.4468 114.476C56.5205 114.087 56.5943 113.699 56.7185 113.289C56.7922 112.9 56.6349 112.669 56.4485 112.509C56.1921 111.903 55.2134 111.84 54.9941 112.588C54.7515 113.703 54.5303 114.869 54.3595 116.014C51.4368 128.808 50.7142 142.162 51.9005 155.245C51.9763 155.988 52.0521 156.73 52.128 157.473C52.9439 160.107 51.307 160.739 47.26 159.471C45.7375 158.684 44.5468 156.149 43.6534 154.739C41.6587 151.709 40.0679 148.509 38.6577 145.173C35.5245 137.619 33.5739 129.626 31.6951 121.661C31.4192 120.586 29.8192 121.024 30.0446 122.121C31.9644 132.153 33.1425 142.261 33.7516 152.43C29.3645 148.386 26.0025 143.67 23.5939 138.253C23.118 136.846 22.5702 135.409 21.9214 134.015C21.9001 133.964 21.8787 133.914 21.8787 133.914C21.8573 133.863 21.8146 133.762 21.7932 133.711C21.2649 132.743 19.764 133.556 20.1195 134.538C20.6731 136.27 21.3064 137.909 22.062 139.556C23.3733 144.066 23.906 148.846 26.0387 153.188C28.5852 158.368 32.4889 162.676 36.7905 166.518C45.8814 174.651 56.2499 182.006 66.2823 188.848C70.8752 191.971 75.8078 194.772 81.1637 196.321C87.0515 198.004 93.1703 197.979 99.1881 197.998C110.705 198.075 122.166 197.878 133.65 197.314C132.372 198.092 131.095 198.871 129.831 199.822C129.079 200.437 129.089 201.446 129.914 201.991C137.228 206.765 144.651 212.922 152.77 216.223C156.937 217.917 161.099 217.767 165.464 217.114C167.646 216.787 170.336 215.829 172.412 216.798C173.295 217.199 173.256 217.812 174.422 218.034C174.616 218.071 174.839 218.036 175.041 217.951C176.27 218.325 177.507 218.577 178.657 219.044C178.75 219.124 178.894 219.183 179.008 219.313C181.403 221.459 183.464 224.222 185.352 226.999C186.6 229.391 187.77 231.876 189.409 233.923C191.821 236.955 194.119 237.646 197.269 239.889C200.254 242.024 220.066 310.517 220.066 310.517C220.543 313.573 244.377 383.235 244.377 383.235C244.977 384.232 270.984 390.186 270.984 390.186C276.941 397.38 276.22 396.131 281.641 402.479C295.869 419.107 355.738 415.527 355.5 390.186C355.338 371.784 319.896 337 312 322.377C308.438 315.779 288.985 293.246 285.011 286.941C281.552 281.432 253.634 247.344 249.814 242.107C247.847 239.423 234.987 224.907 234.987 224.907C234.778 221.598 234.57 218.29 234.413 214.961C234.08 208.964 234.737 202.073 233.216 196.222C239.901 193.455 245.835 186.657 248.999 180.911C253.47 172.765 254.442 163.238 252.258 154.271C252.06 153.52 251.219 153.22 250.584 153.548C244.79 156.593 239.439 160.404 234.703 164.968C232.476 167.16 230.364 169.483 228.416 171.915C227.642 172.898 226.791 174.687 225.809 175.46C225.046 177.034 223.735 177.171 221.826 175.892C227.507 167.652 236.761 161.953 243.696 154.851C253.047 145.298 260.986 134.375 268.701 123.487C272.939 117.466 274.552 111.004 277.577 104.364C279.838 99.2965 282.624 94.4844 283.952 89.0376C286.694 77.9282 284.896 66.3546 283.118 55.2494C283.029 54.3338 281.59 54.1675 281.275 55.2537ZM174.735 194.843C175.749 199.777 165.042 197.391 158.039 195.466C164.999 194.192 173.876 190.559 174.735 194.843Z" fill="#00FF1A"/>
</g>
<path d="M223.097 244.574L212.243 246.361L209.433 253.918L214.354 259.188L215.058 326.999L222.328 350.603L230.539 331.044L222.248 257.889L227.194 250.994L223.097 244.574Z" fill="white"/>
<path d="M222.937 187.459L173.833 209.843C172.296 211.344 174.787 215.954 175.761 218.257C177.902 223.323 191.473 217.044 194.697 215.681C197.92 214.318 194.754 204.257 197.056 203.284C199.359 202.311 203.608 205.943 208.195 207.804C210.161 208.602 212.392 208.744 220.63 202.548C227.22 197.591 225.202 194.102 222.937 187.459Z" fill="white"/>
<defs>
<filter id="filter0_d_133_89" x="0.0656433" y="0.864258" width="375.435" height="431.771" filterUnits="userSpaceOnUse" color-interpolation-filters="sRGB">
<feFlood flood-opacity="0" result="BackgroundImageFix"/>
<feColorMatrix in="SourceAlpha" type="matrix" values="0 0 0 0 0 0 0 0 0 0 0 0 0 0 0 0 0 0 127 0" result="hardAlpha"/>
<feOffset/>
<feGaussianBlur stdDeviation="10"/>
<feComposite in2="hardAlpha" operator="out"/>
<feColorMatrix type="matrix" values="0 0 0 0 0 0 0 0 0 1 0 0 0 0 0.101961 0 0 0 0.5 0"/>
<feBlend mode="normal" in2="BackgroundImageFix" result="effect1_dropShadow_133_89"/>
<feBlend mode="normal" in="SourceGraphic" in2="effect1_dropShadow_133_89" result="shape"/>
</filter>
</defs>
</svg>
