<svg xmlns:xlink="http://www.w3.org/1999/xlink" width="161" height="40" viewBox="0 0 161 40" fill="none" xmlns="http://www.w3.org/2000/svg">
<path d="M58.74 12.9V16.02H54.98V27H51.06V16.02H47.34V12.9H58.74ZM66.9503 27.14C65.6303 27.14 64.417 26.8333 63.3103 26.22C62.2036 25.5933 61.3236 24.7333 60.6703 23.64C60.0303 22.5333 59.7103 21.2867 59.7103 19.9C59.7103 18.5133 60.0303 17.2733 60.6703 16.18C61.3236 15.0733 62.2036 14.2133 63.3103 13.6C64.417 12.9867 65.6303 12.68 66.9503 12.68C68.2836 12.68 69.497 12.9867 70.5903 13.6C71.697 14.2133 72.5703 15.0733 73.2103 16.18C73.8503 17.2733 74.1703 18.5133 74.1703 19.9C74.1703 21.2867 73.8503 22.5333 73.2103 23.64C72.5703 24.7333 71.697 25.5933 70.5903 26.22C69.4836 26.8333 68.2703 27.14 66.9503 27.14ZM66.9503 23.5C67.9503 23.5 68.737 23.1733 69.3103 22.52C69.897 21.8667 70.1903 20.9933 70.1903 19.9C70.1903 18.78 69.897 17.9 69.3103 17.26C68.737 16.6067 67.9503 16.28 66.9503 16.28C65.937 16.28 65.1436 16.6067 64.5703 17.26C63.997 17.9 63.7103 18.78 63.7103 19.9C63.7103 21.0067 63.997 21.8867 64.5703 22.54C65.1436 23.18 65.937 23.5 66.9503 23.5ZM84.7525 27L82.0125 23.02L79.6725 27H75.2125L79.7925 19.78L75.0525 12.9H79.6725L82.3325 16.78L84.6125 12.9H89.0725L84.5525 20L89.3725 27H84.7525ZM94.6377 12.9V27H90.7177V12.9H94.6377ZM96.39 19.92C96.39 18.5333 96.6767 17.3 97.25 16.22C97.8367 15.1267 98.6633 14.28 99.73 13.68C100.797 13.0667 102.023 12.76 103.41 12.76C105.17 12.76 106.65 13.2333 107.85 14.18C109.05 15.1133 109.823 16.3867 110.17 18H105.95C105.697 17.4667 105.343 17.06 104.89 16.78C104.45 16.5 103.937 16.36 103.35 16.36C102.443 16.36 101.717 16.6867 101.17 17.34C100.637 17.98 100.37 18.84 100.37 19.92C100.37 21.0133 100.637 21.8867 101.17 22.54C101.717 23.18 102.443 23.5 103.35 23.5C103.937 23.5 104.45 23.36 104.89 23.08C105.343 22.8 105.697 22.3933 105.95 21.86H110.17C109.823 23.4733 109.05 24.7533 107.85 25.7C106.65 26.6333 105.17 27.1 103.41 27.1C102.023 27.1 100.797 26.8 99.73 26.2C98.6633 25.5867 97.8367 24.74 97.25 23.66C96.6767 22.5667 96.39 21.32 96.39 19.92ZM117.606 12.9C119.086 12.9 120.38 13.2 121.486 13.8C122.606 14.3867 123.466 15.2133 124.066 16.28C124.666 17.3467 124.966 18.5667 124.966 19.94C124.966 21.3 124.66 22.5133 124.046 23.58C123.446 24.6467 122.586 25.4867 121.466 26.1C120.36 26.7 119.073 27 117.606 27H112.026V12.9H117.606ZM117.306 23.54C118.453 23.54 119.353 23.2267 120.006 22.6C120.66 21.9733 120.986 21.0867 120.986 19.94C120.986 18.78 120.66 17.8867 120.006 17.26C119.353 16.62 118.453 16.3 117.306 16.3H115.946V23.54H117.306ZM130.653 16.04V18.34H135.153V21.32H130.653V23.86H135.753V27H126.733V12.9H135.753V16.04H130.653ZM141.61 16.04V18.34H146.11V21.32H141.61V23.86H146.71V27H137.69V12.9H146.71V16.04H141.61ZM155.787 27L152.987 21.8H152.567V27H148.647V12.9H154.827C155.961 12.9 156.921 13.1 157.707 13.5C158.494 13.8867 159.087 14.4267 159.487 15.12C159.887 15.8 160.087 16.5667 160.087 17.42C160.087 18.38 159.821 19.2267 159.287 19.96C158.767 20.68 158.001 21.1933 156.987 21.5L160.167 27H155.787ZM152.567 19.12H154.507C155.041 19.12 155.441 18.9933 155.707 18.74C155.974 18.4867 156.107 18.12 156.107 17.64C156.107 17.1867 155.967 16.8333 155.687 16.58C155.421 16.3133 155.027 16.18 154.507 16.18H152.567V19.12Z" fill="white"/>
<circle cx="20" cy="20" r="19" stroke="#00FF1A" stroke-width="2"/>
<mask id="mask0_8_40" style="mask-type:alpha" maskUnits="userSpaceOnUse" x="0" y="0" width="40" height="40">
<circle cx="20" cy="20" r="20" fill="#00FF1A"/>
</mask>
<g mask="url(#mask0_8_40)">
<path fill-rule="evenodd" clip-rule="evenodd" d="M42.0329 17.0401H38.7612C36.498 17.0401 34.4273 18.3136 33.4063 20.3335L30.24 26.598L25.1403 26.598L25.1402 26.598L24.7166 26.6133L18.5686 41.7033H13.4066L19.5259 26.6133H16.3833C13.9927 26.6133 11.8301 28.0325 10.8788 30.2258L8.37481 35.9988H3.29671L5.93845 29.4238C7.76531 24.877 12.1732 21.8977 17.0733 21.8977H25.9739L28.5216 17.0401H24.7873L22.4211 12.4095H9.50006L4.99525 3.01215H9.50006L12.0027 7.77892H20.601L16.0052 -1.64836H20.601L27.7905 12.4095H29.8203H30.3659H40.0752L42.0329 17.0401Z" fill="white"/>
</g>
</svg>
